<svg width="29" height="23" viewBox="0 0 29 23" fill="none" xmlns="http://www.w3.org/2000/svg">
<path d="M26.5953 4.95458V16.3492C26.5953 17.2787 25.6407 18.1317 24.4686 18.2467L24.094 18.285C22.1124 18.4958 19.3211 19.1475 17.0736 19.895C16.2882 20.1537 15.4182 19.6842 15.4182 19.0037V5.67333C15.4182 5.31875 15.672 4.99292 16.0707 4.82042C18.282 3.87167 21.629 3.02833 23.9007 2.875H23.9732C25.4232 2.875 26.5953 3.80458 26.5953 4.95458Z" fill="white"/>
<path d="M12.9534 4.82042C10.7422 3.87167 7.39508 3.02833 5.12341 2.875H5.03883C3.58883 2.875 2.41675 3.80458 2.41675 4.95458V16.3492C2.41675 17.2787 3.37133 18.1317 4.54341 18.2467L4.918 18.285C6.89966 18.4958 9.69091 19.1475 11.9384 19.895C12.7238 20.1537 13.5938 19.6842 13.5938 19.0037V5.67333C13.5938 5.30917 13.3522 4.99292 12.9534 4.82042Z" fill="white"/>
</svg>
