<svg width="24" height="25" viewBox="0 0 24 25" fill="none" xmlns="http://www.w3.org/2000/svg">
<path d="M19.797 16.6667V19.2708C19.797 21.2812 18.2925 22.9167 16.4429 22.9167H6.85954C5.00995 22.9167 3.50537 21.2812 3.50537 19.2708V18.5938C3.50537 16.9583 4.73204 15.625 6.23662 15.625H18.8387C19.3658 15.625 19.797 16.0937 19.797 16.6667Z" fill="white"/>
<path d="M15.0054 2.08337H8.29704C4.4637 2.08337 3.50537 3.12504 3.50537 7.29171V15.1875C4.2337 14.4896 5.19204 14.0625 6.23662 14.0625H18.8387C19.3658 14.0625 19.797 13.5938 19.797 13.0209V7.29171C19.797 3.12504 18.8387 2.08337 15.0054 2.08337ZM12.6095 11.198H7.81787C7.42495 11.198 7.09912 10.8438 7.09912 10.4167C7.09912 9.98962 7.42495 9.63546 7.81787 9.63546H12.6095C13.0025 9.63546 13.3283 9.98962 13.3283 10.4167C13.3283 10.8438 13.0025 11.198 12.6095 11.198ZM15.4845 7.55212H7.81787C7.42495 7.55212 7.09912 7.19796 7.09912 6.77087C7.09912 6.34379 7.42495 5.98962 7.81787 5.98962H15.4845C15.8775 5.98962 16.2033 6.34379 16.2033 6.77087C16.2033 7.19796 15.8775 7.55212 15.4845 7.55212Z" fill="white"/>
</svg>
