<svg width="24" height="25" viewBox="0 0 24 25" fill="none" xmlns="http://www.w3.org/2000/svg">
<path d="M20.7555 11.3542V4.27087C20.7555 2.70837 20.1421 2.08337 18.6184 2.08337H14.7467C13.223 2.08337 12.6096 2.70837 12.6096 4.27087V11.3542C12.6096 12.9167 13.223 13.5417 14.7467 13.5417H18.6184C20.1421 13.5417 20.7555 12.9167 20.7555 11.3542Z" fill="white"/>
<path d="M10.6927 13.6459V20.7292C10.6927 22.2917 10.0794 22.9167 8.55563 22.9167H4.68396C3.16021 22.9167 2.54688 22.2917 2.54688 20.7292V13.6459C2.54688 12.0834 3.16021 11.4584 4.68396 11.4584H8.55563C10.0794 11.4584 10.6927 12.0834 10.6927 13.6459Z" fill="white"/>
<path d="M20.7555 20.7292V17.8125C20.7555 16.25 20.1421 15.625 18.6184 15.625H14.7467C13.223 15.625 12.6096 16.25 12.6096 17.8125V20.7292C12.6096 22.2917 13.223 22.9167 14.7467 22.9167H18.6184C20.1421 22.9167 20.7555 22.2917 20.7555 20.7292Z" fill="white"/>
<path d="M10.6927 7.18754V4.27087C10.6927 2.70837 10.0794 2.08337 8.55563 2.08337H4.68396C3.16021 2.08337 2.54688 2.70837 2.54688 4.27087V7.18754C2.54688 8.75004 3.16021 9.37504 4.68396 9.37504H8.55563C10.0794 9.37504 10.6927 8.75004 10.6927 7.18754Z" fill="white"/>
</svg>
