<svg width="26" height="25" viewBox="0 0 26 25" fill="none" xmlns="http://www.w3.org/2000/svg">
<path d="M21.6303 8.80204C20.5365 3.98954 16.3386 1.82288 12.6511 1.82288C12.6511 1.82288 12.6511 1.82288 12.6407 1.82288C8.9636 1.82288 4.75527 3.97913 3.66152 8.79163C2.44277 14.1666 5.73443 18.7187 8.7136 21.5833C9.81777 22.6458 11.2344 23.177 12.6511 23.177C14.0678 23.177 15.4844 22.6458 16.5782 21.5833C19.5574 18.7187 22.849 14.177 21.6303 8.80204ZM12.6511 14.0208C10.8386 14.0208 9.36985 12.552 9.36985 10.7395C9.36985 8.92704 10.8386 7.45829 12.6511 7.45829C14.4636 7.45829 15.9324 8.92704 15.9324 10.7395C15.9324 12.552 14.4636 14.0208 12.6511 14.0208Z" fill="white"/>
</svg>
