<svg width="24" height="25" viewBox="0 0 24 25" fill="none" xmlns="http://www.w3.org/2000/svg">
<path d="M20.1804 10.2604L20.7458 20.5625C20.765 20.8437 20.6404 21.0312 20.5733 21.1146C20.4966 21.2083 20.3337 21.3542 20.0654 21.3542H17.4491L19.5191 10.2604H20.1804ZM21.2345 6.25L21.225 6.27083C21.2441 6.52083 21.225 6.78125 21.1675 7.04167L14.1045 21.1354C13.8745 22.1875 13.012 22.9167 12.0154 22.9167H20.0654C21.3016 22.9167 22.2791 21.7812 22.1833 20.4375L21.2345 6.25Z" fill="white"/>
<path d="M11.1239 2.33329C11.2198 1.91662 10.9802 1.48954 10.5969 1.38537C10.2135 1.29162 9.82061 1.54162 9.72477 1.95829L9.24561 4.11454H10.7214L11.1239 2.33329Z" fill="white"/>
<path d="M17.4491 2.30208C17.5354 1.87499 17.2862 1.46874 16.8933 1.37499C16.51 1.28124 16.1266 1.55208 16.0404 1.97916L15.6091 4.13541H17.085L17.4491 2.30208Z" fill="white"/>
<path d="M21.0619 5.55216C20.7456 4.71883 19.9981 4.12508 19.0781 4.12508H17.0848L16.5481 6.823C16.4715 7.18758 16.1744 7.43758 15.8485 7.43758C15.8006 7.43758 15.7431 7.43758 15.6952 7.41675C15.3119 7.323 15.0627 6.90633 15.1394 6.48966L15.609 4.11466H10.7215L10.1177 6.823C10.041 7.17717 9.74397 7.41675 9.41813 7.41675C9.36063 7.41675 9.30313 7.40633 9.24563 7.39591C8.8623 7.29175 8.62272 6.87508 8.71855 6.448L9.23605 4.10425H7.29063C6.35147 4.10425 5.51772 4.77091 5.2398 5.75008L1.20522 19.8647C0.783551 21.3751 1.80897 22.9167 3.25605 22.9167H15.8485C16.8452 22.9167 17.7077 22.1876 17.9377 21.1355L21.1673 7.04175C21.2248 6.78133 21.244 6.52091 21.2248 6.27091C21.2056 6.02091 21.1577 5.77091 21.0619 5.55216ZM14.2386 17.448H6.57188C6.17897 17.448 5.85313 17.0938 5.85313 16.6667C5.85313 16.2397 6.17897 15.8855 6.57188 15.8855H14.2386C14.6315 15.8855 14.9573 16.2397 14.9573 16.6667C14.9573 17.0938 14.6315 17.448 14.2386 17.448ZM15.1969 13.2813H7.53022C7.1373 13.2813 6.81147 12.9272 6.81147 12.5001C6.81147 12.073 7.1373 11.7188 7.53022 11.7188H15.1969C15.5898 11.7188 15.9156 12.073 15.9156 12.5001C15.9156 12.9272 15.5898 13.2813 15.1969 13.2813Z" fill="white"/>
</svg>
