<svg width="26" height="25" viewBox="0 0 26 25" fill="none" xmlns="http://www.w3.org/2000/svg">
<g clip-path="url(#clip0_187_224)">
<path d="M20.297 15.0938L19.2553 13.3646C19.0366 12.9792 18.8386 12.25 18.8386 11.823V9.18754C18.8386 6.73962 17.4011 4.62504 15.3282 3.63546C14.7866 2.67712 13.7866 2.08337 12.6407 2.08337C11.5053 2.08337 10.4845 2.69796 9.94281 3.66671C7.91156 4.67712 6.50531 6.77087 6.50531 9.18754V11.823C6.50531 12.25 6.30739 12.9792 6.08864 13.3542L5.03656 15.0938C4.6199 15.7917 4.52614 16.5625 4.78656 17.2709C5.03656 17.9688 5.63031 18.5105 6.40114 18.7709C8.42198 19.4584 10.547 19.7917 12.672 19.7917C14.797 19.7917 16.922 19.4584 18.9428 18.7813C19.672 18.5417 20.2345 17.9896 20.5053 17.2709C20.7761 16.5521 20.7032 15.7605 20.297 15.0938Z" fill="white"/>
<path d="M15.599 20.8438C15.1615 22.0521 14.0053 22.9167 12.6511 22.9167C11.8282 22.9167 11.0157 22.5834 10.4428 21.9896C10.1095 21.6771 9.85946 21.2605 9.71362 20.8334C9.84904 20.8542 9.98446 20.8646 10.1303 20.8855C10.3699 20.9167 10.6199 20.948 10.8699 20.9688C11.4636 21.0209 12.0678 21.0521 12.672 21.0521C13.2657 21.0521 13.8595 21.0209 14.4428 20.9688C14.6615 20.948 14.8803 20.9375 15.0886 20.9063C15.2553 20.8855 15.422 20.8646 15.599 20.8438Z" fill="white"/>
</g>
<defs>
<clipPath id="clip0_187_224">
<rect width="25" height="25" fill="white" transform="translate(0.151123)"/>
</clipPath>
</defs>
</svg>
