<svg width="26" height="25" viewBox="0 0 26 25" fill="none" xmlns="http://www.w3.org/2000/svg">
<path d="M12.651 2.08337C9.92188 2.08337 7.70312 4.30212 7.70312 7.03129C7.70312 9.70838 9.79688 11.875 12.526 11.9688C12.6094 11.9584 12.6927 11.9584 12.7552 11.9688C12.776 11.9688 12.7865 11.9688 12.8073 11.9688C12.8177 11.9688 12.8177 11.9688 12.8281 11.9688C15.4948 11.875 17.5885 9.70838 17.599 7.03129C17.599 4.30212 15.3802 2.08337 12.651 2.08337Z" fill="white"/>
<path d="M17.9429 14.7396C15.0366 12.8021 10.297 12.8021 7.36995 14.7396C6.04704 15.625 5.31787 16.823 5.31787 18.1042C5.31787 19.3855 6.04704 20.573 7.35954 21.448C8.81787 22.4271 10.7345 22.9167 12.6512 22.9167C14.5679 22.9167 16.4845 22.4271 17.9429 21.448C19.2554 20.5625 19.9845 19.375 19.9845 18.0834C19.9741 16.8021 19.2554 15.6146 17.9429 14.7396Z" fill="white"/>
</svg>
