<svg width="20" height="20" viewBox="0 0 20 20" fill="none" xmlns="http://www.w3.org/2000/svg">
<path d="M9.68574 15.918C13.1357 15.918 15.9325 13.1212 15.9325 9.67121C15.9325 6.22122 13.1357 3.42444 9.68574 3.42444C6.23574 3.42444 3.43896 6.22122 3.43896 9.67121C3.43896 13.1212 6.23574 15.918 9.68574 15.918Z" fill="#151515"/>
<path d="M16.1298 16.5755C16.0115 16.5755 15.8931 16.5295 15.8076 16.444L14.5846 15.221C14.407 15.0434 14.407 14.7541 14.5846 14.57C14.7621 14.3924 15.0514 14.3924 15.2356 14.57L16.4586 15.793C16.6361 15.9706 16.6361 16.2599 16.4586 16.444C16.3665 16.5295 16.2482 16.5755 16.1298 16.5755Z" fill="#151515"/>
</svg>
