<svg width="26" height="25" viewBox="0 0 26 25" fill="none" xmlns="http://www.w3.org/2000/svg">
<path d="M21.0885 9.6042C19.2031 9.6042 18.4323 8.27087 19.3698 6.63545C19.9115 5.68754 19.5885 4.4792 18.6406 3.93754L16.8385 2.90629C16.0156 2.4167 14.9531 2.70837 14.4635 3.53129L14.349 3.7292C13.4115 5.36462 11.8698 5.36462 10.9219 3.7292L10.8073 3.53129C10.3385 2.70837 9.27604 2.4167 8.45312 2.90629L6.65104 3.93754C5.70312 4.4792 5.38021 5.69795 5.92187 6.64587C6.86979 8.27087 6.09896 9.6042 4.21354 9.6042C3.13021 9.6042 2.23438 10.4896 2.23438 11.5834V13.4167C2.23438 14.5 3.11979 15.3959 4.21354 15.3959C6.09896 15.3959 6.86979 16.7292 5.92187 18.3646C5.38021 19.3125 5.70312 20.5209 6.65104 21.0625L8.45312 22.0938C9.27604 22.5834 10.3385 22.2917 10.8281 21.4688L10.9427 21.2709C11.8802 19.6355 13.4219 19.6355 14.3698 21.2709L14.4844 21.4688C14.974 22.2917 16.0365 22.5834 16.8594 22.0938L18.6615 21.0625C19.6094 20.5209 19.9323 19.3021 19.3906 18.3646C18.4427 16.7292 19.2135 15.3959 21.099 15.3959C22.1823 15.3959 23.0781 14.5105 23.0781 13.4167V11.5834C23.0677 10.5 22.1823 9.6042 21.0885 9.6042ZM12.651 15.8855C10.7865 15.8855 9.26562 14.3646 9.26562 12.5C9.26562 10.6355 10.7865 9.11462 12.651 9.11462C14.5156 9.11462 16.0365 10.6355 16.0365 12.5C16.0365 14.3646 14.5156 15.8855 12.651 15.8855Z" fill="white"/>
</svg>
