<?xml version="1.0" standalone="no"?>
<svg xmlns:xlink="http://www.w3.org/1999/xlink" id="wave" style="transform:rotate(0deg); transition: 0.3s" viewBox="0 0 1440 110" version="1.1" xmlns="http://www.w3.org/2000/svg"><defs><linearGradient id="sw-gradient-0" x1="0" x2="0" y1="1" y2="0"><stop stop-color="rgba(169, 29, 58, 1)" offset="0%"/><stop stop-color="rgba(155.191, 146.034, 147.931, 1)" offset="100%"/></linearGradient></defs><path style="transform:translate(0, 0px); opacity:1" fill="url(#sw-gradient-0)" d="M0,66L21.8,56.8C43.6,48,87,29,131,34.8C174.5,40,218,70,262,71.5C305.5,73,349,48,393,47.7C436.4,48,480,73,524,80.7C567.3,88,611,77,655,64.2C698.2,51,742,37,785,42.2C829.1,48,873,73,916,69.7C960,66,1004,33,1047,20.2C1090.9,7,1135,15,1178,25.7C1221.8,37,1265,51,1309,58.7C1352.7,66,1396,66,1440,62.3C1483.6,59,1527,51,1571,49.5C1614.5,48,1658,51,1702,49.5C1745.5,48,1789,40,1833,42.2C1876.4,44,1920,55,1964,49.5C2007.3,44,2051,22,2095,16.5C2138.2,11,2182,22,2225,29.3C2269.1,37,2313,40,2356,38.5C2400,37,2444,29,2487,29.3C2530.9,29,2575,37,2618,40.3C2661.8,44,2705,44,2749,45.8C2792.7,48,2836,51,2880,47.7C2923.6,44,2967,33,3011,29.3C3054.5,26,3098,29,3120,31.2L3141.8,33L3141.8,110L3120,110C3098.2,110,3055,110,3011,110C2967.3,110,2924,110,2880,110C2836.4,110,2793,110,2749,110C2705.5,110,2662,110,2618,110C2574.5,110,2531,110,2487,110C2443.6,110,2400,110,2356,110C2312.7,110,2269,110,2225,110C2181.8,110,2138,110,2095,110C2050.9,110,2007,110,1964,110C1920,110,1876,110,1833,110C1789.1,110,1745,110,1702,110C1658.2,110,1615,110,1571,110C1527.3,110,1484,110,1440,110C1396.4,110,1353,110,1309,110C1265.5,110,1222,110,1178,110C1134.5,110,1091,110,1047,110C1003.6,110,960,110,916,110C872.7,110,829,110,785,110C741.8,110,698,110,655,110C610.9,110,567,110,524,110C480,110,436,110,393,110C349.1,110,305,110,262,110C218.2,110,175,110,131,110C87.3,110,44,110,22,110L0,110Z"/></svg>